<svg width="75px" height="65px" viewBox="0 0 75 65" version="1.1" xmlns="http://www.w3.org/2000/svg" xmlns:xlink="http://www.w3.org/1999/xlink">
  <path d="M9.00476828,41.9546952 L16.6567487,36 L22.995387,36 L22.995387,38 L17.3432513,38 L7.00476828,46.0453048 L7.00476828,38 L-6.99440506e-15,38 L-7.10542736e-15,-1.10134124e-13 L52,-1.10134124e-13 L52,19 L50,19 L50,2 L2,2 L2,36 L9.00476828,36 L9.00476828,41.9546952 Z M24.9999999,37.9997437 L25.0043567,55 L58.3432513,55 L65.9952317,60.9546952 L65.9952317,55 L73,55 L73,21 L52,21 L52,19 L75,19 L75,57 L67.9952317,57 L67.9952317,65.0453048 L57.6567487,57 L23.0048692,57 L23,38.0002563 L24.9999999,37.9997437 Z" id="Combined-Shape" fill="#01B6D1"></path>
  <path d="M31,36 L50,36 L50,21 L25,21 L25,38 L23,38 L23,19 L52,19 L52,38 L31,38 L31,36 Z M30,27 L33,27 L33,30 L30,30 L30,27 Z M36,27 L39,27 L39,30 L36,30 L36,27 Z M42,27 L45,27 L45,30 L42,30 L42,27 Z" id="Combined-Shape" fill="#8DB344"></path>
</svg>
