<svg width="61px" height="71px" viewBox="0 0 61 71" version="1.1" xmlns="http://www.w3.org/2000/svg" xmlns:xlink="http://www.w3.org/1999/xlink">
  <g id="donate-line-icon" fill="none" transform="translate(1.000000, 1.000000)" stroke-width="2">
    <rect id="donate-sleeve" stroke="#01B6D1" x="17" y="52" width="29" height="17"></rect>
    <path id="donate-button" d="M38,60 L41,60 L38,60 Z" stroke="#01B6D1"></path>
    <path id="donate-hand" d="M17.9977426,29 L15.5915777,33.2131662 C14.5971818,34.9543418 14.5382784,37.0771646 15.4345914,38.870803 L21.9954852,52" stroke="#01B6D1"></path>
    <path id="donate-thumb" d="M31.007,36.0148885 L33.9750311,32.0532459 L33.9750311,20.546471 C33.9750311,18.6065794 35.547624,17.0339866 37.4875156,17.0339866 L37.4875156,17.0339866 C39.4274071,17.0339866 41,18.6065794 41,20.546471 L41,32.0532459 L42.7694325,36.7591916 C43.5804745,38.916222 43.9959646,41.2018101 43.9959646,43.5062773 L43.9959646,43.5062773 C43.9959646,45.7983602 43.4642514,48.059197 42.4426349,50.1110118 L42,51" stroke="#01B6D1" stroke-linecap="square"></path>
    <polyline id="donate-envelope" stroke="#FFB81C" points="28.0507808 29 0 29 0 0 59 0 59 29 42 29"></polyline>
    <polyline id="donate-flap" stroke="#FFB81C" stroke-linecap="square" points="1 1 8 8 51 8 54 5"></polyline>
  </g>
  <style>
    #donate-sleeve {
      <!-- stroke-dasharray: 104;
      stroke-dashoffset: -104; -->
      transform: scaleY(0);
      transform-origin: 50% 100%;
      animation: dashGrow 1000ms 0ms linear forwards;
    }
    #donate-button {
      stroke-dasharray: 6;
      stroke-dashoffset: 6;
      transform: translateY(16px);
      animation: dashUp 1000ms 0ms linear forwards;
    }
    #donate-hand {
      stroke-dasharray: 38;
      stroke-dashoffset: -38;
      transform: translateY(19px);
      animation: dashUp 1000ms 0ms linear forwards;
    }
    #donate-thumb {
      stroke-dasharray: 72;
      stroke-dashoffset: -72;
      transform: translateY(19px);
      animation: dashUp 1000ms 0ms linear forwards;
    }
    #donate-envelope {
      stroke-dasharray: 175;
      stroke-dashoffset: -175;
      transform: translateY(19px);
      animation: dashUp 1000ms 0ms linear forwards;
    }
    #donate-flap {
      stroke-dasharray: 70;
      stroke-dashoffset: 70;
      transform: translateY(6px);
      animation: dashUp 300ms 700ms linear forwards;
    }
    @keyframes dashGrow {
      to {
        stroke-dashoffset: 0;
        transform: scaleY(1)
      }
    }
    @keyframes dashUp {
      to {
        stroke-dashoffset: 0;
        transform: translateY(0)
      }
    }
  </style>
</svg>
