<svg width="80px" height="80px" viewBox="0 0 80 80" version="1.1" xmlns="http://www.w3.org/2000/svg" xmlns:xlink="http://www.w3.org/1999/xlink">
  <g id="family-search-line-icon" transform="translate(8.5, 4)" fill="none" stroke-width="2">
    <path id="fs-trunk" d="M41,73 C25.6666667,63.3330938 22.3333333,48.9997604 31,30 L29,30 C18.4680994,40.2656301 16.1883479,57.100242 30,73 L41,73 Z" stroke="#01B6D1"></path>
    <path id="fs-branch-1" d="M28,57.1189306 C31.0647831,57.4103755 34.2647737,55.5870617 37.5999718,51.6489891" stroke="#01B6D1" stroke-linecap="square"></path>
    <path id="fs-branch-2" d="M20.4451827,46.236074 C16.0006072,44.4471835 13.7783195,41.7124668 13.7783195,38.0319239" stroke="#01B6D1"></path>
    <path id="fs-magnify-main" d="M41.9345747,56.7282084 C43.4312345,57.4905529 45.1256149,57.9203887 46.9203887,57.9203887 C52.995521,57.9203887 57.9203887,52.995521 57.9203887,46.9203887 C57.9203887,40.8452565 52.995521,35.9203887 46.9203887,35.9203887 C40.8452565,35.9203887 35.9203887,40.8452565 35.9203887,46.9203887 C35.9203887,48.5566953 36.2776718,50.1095539 36.9184818,51.5052085" stroke="#8DB344"></path>
    <path id="fs-magnify-handle" d="M55.4203887,54.4203887 L62.8407774,61.8407774" stroke="#8DB344" stroke-linecap="square"></path>
    <path id="fs-magnify-glare" d="M46.9203887,39.9203887 C43.0543955,39.9203887 39.9203887,43.0543955 39.9203887,46.9203887" stroke="#8DB344"></path>
    <rect id="fs-leaf-1" stroke="#01B6D1" x="1" y="23" width="15" height="15"></rect>
    <rect id="fs-leaf-5" stroke="#01B6D1" x="44" y="16" width="15" height="15"></rect>
    <rect id="fs-leaf-4" stroke="#01B6D1" x="26" y="1" width="11" height="11"></rect>
    <rect id="fs-leaf-2" stroke="#01B6D1" x="12" y="9" width="8" height="8"></rect>
    <rect id="fs-leaf-3" stroke="#01B6D1" x="25" y="18" width="12" height="12"></rect>
  </g>
  <style>
    #fs-trunk {
      transform: scaleY(0);
      transform-origin: 50% 100%;
      animation: growTrunk 300ms 0ms linear forwards;
    }
    #fs-branch-1 {
      stroke-dasharray: 12;
      stroke-dashoffset: 12;
      animation: dash 100ms 300ms linear forwards;
    }
    #fs-branch-2 {
      stroke-dasharray: 12;
      stroke-dashoffset: 12;
      animation: dash 100ms 400ms linear forwards;
    }
    #fs-magnify-main {
      stroke-dasharray: 64;
      stroke-dashoffset: -64;
      animation: dash 300ms 400ms linear forwards;
    }
    #fs-magnify-handle {
      stroke-dasharray: 11;
      stroke-dashoffset: 11;
      animation: dash 100ms 700ms linear forwards;
    }
    #fs-magnify-glare {
      stroke-dasharray: 11;
      stroke-dashoffset: -11;
      animation: dash 100ms 700ms linear forwards;
    }
    #fs-leaf-1 {
      <!-- stroke-dasharray: 200;
      stroke-dashoffset: 200; -->
      transform: scale(0);
      transform-origin: 12px 38px;
      animation: growLeaf 300ms 500ms linear forwards;
    }
    #fs-leaf-2 {
      <!-- stroke-dasharray: 200;
      stroke-dashoffset: 200; -->
      transform: scale(0);
      transform-origin: 18px 14px;
      animation: growLeaf 200ms 800ms linear forwards;
    }
    #fs-leaf-3 {
      <!-- stroke-dasharray: 200;
      stroke-dashoffset: 200; -->
      transform: scale(0);
      transform-origin: 31px 28px;
      animation: growLeaf 300ms 500ms linear forwards;
    }
    #fs-leaf-4 {
      <!-- stroke-dasharray: 200;
      stroke-dashoffset: 200; -->
      transform: scale(0);
      transform-origin: 31px 13px;
      animation: growLeaf 200ms 800ms linear forwards;
    }
    #fs-leaf-5 {
      <!-- stroke-dasharray: 200;
      stroke-dashoffset: 200; -->
      transform: scale(0);
      transform-origin: 45px 30px;
      animation: growLeaf 300ms 500ms linear forwards;
    }
    @keyframes growLeaf {
      to { transform: scale(1) }
    }
    @keyframes growTrunk {
      to { transform: scaleY(1) }
    }
    @keyframes dash {
      to { stroke-dashoffset: 0 }
    }
  </style>
</svg>
