<svg width="65px" height="74px" viewBox="0 0 65 74" version="1.1" xmlns="http://www.w3.org/2000/svg" xmlns:xlink="http://www.w3.org/1999/xlink">
  <path d="M56.5269847,54.1127711 L64.254991,61.8407774 L62.8407774,63.254991 L55.1960512,55.6102647 C53.0430213,57.6612909 50.128744,58.9203887 46.9203887,58.9203887 C45.0048704,58.9203887 43.1516996,58.4704208 41.4806985,57.6192731 L42.388451,55.8371436 C43.7798878,56.5458914 45.3222367,56.9203887 46.9203887,56.9203887 C52.4432362,56.9203887 56.9203887,52.4432362 56.9203887,46.9203887 C56.9203887,41.3975412 52.4432362,36.9203887 46.9203887,36.9203887 C41.3975412,36.9203887 36.9203887,41.3975412 36.9203887,46.9203887 C36.9203887,48.3793994 37.2324178,49.7923901 37.8272665,51.0879431 L36.0096971,51.9224739 C35.2952458,50.366432 34.9203887,48.668931 34.9203887,46.9203887 C34.9203887,40.2929717 40.2929717,34.9203887 46.9203887,34.9203887 C53.5478057,34.9203887 58.9203887,40.2929717 58.9203887,46.9203887 C58.9203887,49.6184237 58.0299794,52.1084925 56.5269847,54.1127711 Z M46.9203887,38.9203887 L46.9203887,40.9203887 C43.6066802,40.9203887 40.9203887,43.6066802 40.9203887,46.9203887 L38.9203887,46.9203887 C38.9203887,42.5021107 42.5021107,38.9203887 46.9203887,38.9203887 Z" id="Combined-Shape" fill="#8DB344"></path>
  <path d="M19.505855,46.9259832 C15.4477194,45.1466174 13.1756774,42.4843262 12.82594,39 L0,39 L0,22 L17,22 L17,39 L14.8399177,39 C15.1651966,41.4824865 16.783222,43.4206664 19.8004329,44.8621209 C20.715542,39.82172 23.0295976,35.0950613 26.663401,31 L24,31 L24,17 L38,17 L38,31 L31.6461355,31 C27.3388689,40.6724189 26.2349599,49.0347632 28.3350158,56.1411002 C30.9487483,56.2773078 33.7859359,54.6051355 36.8368706,51.0027101 L37.4831496,50.2396089 L39.009352,51.5321669 L38.363073,52.2952681 C35.2178404,56.0090368 32.107089,57.988873 29.0232717,58.1400288 C31.1750075,63.5902658 35.3449192,68.2526066 41.5333104,72.1540804 L44.4612483,74 L29.5440617,74 L29.2450602,73.655794 C21.7215448,64.9948408 18.6023997,55.5741732 19.505855,46.9259832 Z M28.5932661,29 L32.5552681,29 L36,29 L36,19 L26,19 L26,29 L28.5932661,29 Z M2,24 L2,37 L15,37 L15,24 L2,24 Z M45,17 L45,30 L58,30 L58,17 L45,17 Z M43,15 L60,15 L60,32 L43,32 L43,15 Z M27,2 L27,11 L36,11 L36,2 L27,2 Z M25,0 L38,0 L38,13 L25,13 L25,0 Z M13,10 L13,16 L19,16 L19,10 L13,10 Z M11,8 L21,8 L21,18 L11,18 L11,8 Z M29.4630456,31.0000071 L29.4104506,31 C18.6536087,41.7581198 18.3353474,57.7825812 30.45869,72 L37.7565896,72 C24.66403,62.350591 21.8984345,48.5876919 29.4630456,31.0000071 Z" id="Combined-Shape" fill="#01B6D1"></path>
</svg>
