<svg width="78px" height="65px" viewBox="0 0 78 65" version="1.1" xmlns="http://www.w3.org/2000/svg" xmlns:xlink="http://www.w3.org/1999/xlink">
  <path d="M8,57 L6,57 L2,57 L2,60 C2,61.6568542 3.34314575,63 5,63 L73,63 C74.6568542,63 76,61.6568542 76,60 L76,57 L73,57 L71,57 L50.8739825,57 C50.4299397,58.7252272 48.8638394,60 47,60 L32,60 C30.1361606,60 28.5700603,58.7252272 28.1260175,57 L8,57 Z M6,55 L6,23 C6,20.2385763 8.23857625,18 11,18 L20,18 L20,20 L11,20 C9.34314575,20 8,21.3431458 8,23 L8,55 L30,55 L30,56 C30,57.1045695 30.8954305,58 32,58 L47,58 C48.1045695,58 49,57.1045695 49,56 L49,55 L71,55 L71,23 C71,21.3431458 69.6568542,20 68,20 L55,20 L55,18 L68,18 C70.7614237,18 73,20.2385763 73,23 L73,55 L78,55 L78,60 C78,62.7614237 75.7614237,65 73,65 L5,65 C2.23857625,65 3.33066907e-16,62.7614237 0,60 L0,55 L6,55 Z M25,28 L27,28 L27,30 L25,30 L25,28 Z M25,32 L27,32 L27,34 L25,34 L25,32 Z M25,36 L27,36 L27,38 L25,38 L25,36 Z M29,36 L31,36 L31,38 L29,38 L29,36 Z M33,36 L35,36 L35,38 L33,38 L33,36 Z M37,36 L39,36 L39,38 L37,38 L37,36 Z M41,36 L43,36 L43,38 L41,38 L41,36 Z M45,36 L47,36 L47,38 L45,38 L45,36 Z M49,36 L51,36 L51,38 L49,38 L49,36 Z M53,36 L55,36 L55,38 L53,38 L53,36 Z M53,32 L55,32 L55,34 L53,34 L53,32 Z M53,28 L55,28 L55,30 L53,30 L53,28 Z" id="Combined-Shape" fill="#01B6D1"></path>
  <path d="M25,24 L25,-9.20152843e-13 L55,-9.20152843e-13 L55,20 L53,20 L53,2 L27,2 L27,24 L58,24 L58,26 L22,26 L22,24 L25,24 Z M34,10 L34,8 L46,8 L46,10 L34,10 Z M34,16 L34,14 L46,14 L46,16 L34,16 Z" id="Combined-Shape" fill="#8DB344"></path>
</svg>
