<svg width="78px" height="80px" viewBox="0 0 78 80" version="1.1" xmlns="http://www.w3.org/2000/svg" xmlns:xlink="http://www.w3.org/1999/xlink">
  <g id="indexing-line-icon" fill="none" transform="translate(1.000000, 8.000000)">
    <path id="indexing-laptop-left" d="M6,55 L6,22 C6,19.790861 7.790861,18 10,18 L18,18" stroke="#01B6D1" stroke-width="2" stroke-linecap="square"></path>
    <path id="indexing-laptop-right" d="M71,55 L71,22 C71,19.790861 69.209139,18 67,18 L55,18" stroke="#01B6D1" stroke-width="2" stroke-linecap="square"></path>
    <path id="indexing-laptop-base" d="M0,55 L28,55 L28,55 C28,56.6568542 29.3431458,58 31,58 L46,58 C47.6568542,58 49,56.6568542 49,55 L76,55 L76,59 C76,61.209139 74.209139,63 72,63 L4,63 C1.790861,63 2.705415e-16,61.209139 0,59 L0,55 Z" stroke="#01B6D1" stroke-width="2"></path>
    <path id="indexing-slit" d="M21,24 L57,24" stroke="#8DB344" stroke-width="2"></path>
    <path id="indexing-page-line-1" d="M33,8 L45,8" stroke="#8DB344" stroke-width="2"></path>
    <path id="indexing-page-line-2" d="M33,14 L45,14" stroke="#8DB344" stroke-width="2"></path>
    <polyline id="indexing-page-main" stroke="#8DB344" stroke-width="2" stroke-linecap="square" points="25 24 25 -9.219292e-13 53 -9.219292e-13 53 18"></polyline>
    <rect id="indexing-page-dot-1" fill="#01B6D1" x="24" y="27" width="2" height="2"></rect>
    <rect id="indexing-page-dot-2" fill="#01B6D1" x="24" y="31" width="2" height="2"></rect>
    <rect id="indexing-page-dot-3" fill="#01B6D1" x="24" y="35" width="2" height="2"></rect>
    <rect id="indexing-page-dot-4" fill="#01B6D1" x="28" y="35" width="2" height="2"></rect>
    <rect id="indexing-page-dot-5" fill="#01B6D1" x="32" y="35" width="2" height="2"></rect>
    <rect id="indexing-page-dot-6" fill="#01B6D1" x="36" y="35" width="2" height="2"></rect>
    <rect id="indexing-page-dot-7" fill="#01B6D1" x="40" y="35" width="2" height="2"></rect>
    <rect id="indexing-page-dot-8" fill="#01B6D1" x="44" y="35" width="2" height="2"></rect>
    <rect id="indexing-page-dot-9" fill="#01B6D1" x="48" y="35" width="2" height="2"></rect>
    <rect id="indexing-page-dot-10" fill="#01B6D1" x="52" y="35" width="2" height="2"></rect>
    <rect id="indexing-page-dot-11" fill="#01B6D1" x="52" y="31" width="2" height="2"></rect>
    <rect id="indexing-page-dot-12" fill="#01B6D1" x="52" y="27" width="2" height="2"></rect>
  </g>
  <style>
    #indexing-laptop-left {
      stroke-dasharray: 48;
      stroke-dashoffset: 48;
      animation: dashTransform 300ms 0ms linear forwards;
    }
    #indexing-laptop-right {
      stroke-dasharray: 52;
      stroke-dashoffset: 52;
      animation: dashTransform 300ms 0ms linear forwards;
    }
    #indexing-laptop-base {
      stroke-dasharray: 168;
      stroke-dashoffset: 168;
      animation: dashTransform 675ms 0ms linear forwards;
    }
    #indexing-slit {
      stroke-dasharray: 36;
      stroke-dashoffset: 36;
      animation: dashTransform 300ms 0ms linear forwards;
    }
    #indexing-page-line-1 {
      stroke-dasharray: 12;
      stroke-dashoffset: 12;
      transform: translateY(-10px);
      animation: dashTransform 675ms 0ms linear forwards;
    }
    #indexing-page-line-2 {
      stroke-dasharray: 12;
      stroke-dashoffset: 12;
      transform: translateY(-10px);
      animation: dashTransform 675ms 0ms linear forwards;
    }
    #indexing-page-main {
      stroke-dasharray: 70;
      stroke-dashoffset: 70;
      transform: scaleY(1.25);
      transform-origin: 50% 28px;
      animation: dashTransform 675ms 0ms linear forwards;
    }
    rect[id|='indexing-page-dot'] {
      opacity: 0;
      animation: dashTransform 0ms 0ms linear forwards;
    }
    #indexing-page-dot-12 { animation-delay: 725ms }
    #indexing-page-dot-11 { animation-delay: 750ms }
    #indexing-page-dot-10 { animation-delay: 775ms }
    #indexing-page-dot-9 { animation-delay: 800ms }
    #indexing-page-dot-8 { animation-delay: 825ms }
    #indexing-page-dot-7 { animation-delay: 850ms }
    #indexing-page-dot-6 { animation-delay: 875ms }
    #indexing-page-dot-5 { animation-delay: 900ms }
    #indexing-page-dot-4 { animation-delay: 925ms }
    #indexing-page-dot-3 { animation-delay: 950ms }
    #indexing-page-dot-2 { animation-delay: 975ms }
    #indexing-page-dot-1 { animation-delay: 1000ms }
    @keyframes dashTransform {
      to {
        stroke-dashoffset: 0;
        opacity: 1;
        transform: scaleX(1) scaleY(1) translateX(0) translateY(0);
      }
    }
  </style>
</svg>
