<svg fill="none" width="70px" height="76px" viewBox="0 0 70 76" version="1.1" xmlns="http://www.w3.org/2000/svg" xmlns:xlink="http://www.w3.org/1999/xlink">
  <g id="meetinghouse-locator-line-icon" transform="translate(1, 4)" stroke-width="2">
    <polyline id="mhl-meetinghouse-main" stroke="#01B6D1" points="14 60 14 40 14 40 34 31 54 40 54 60"></polyline>
    <polyline id="mhl-meetinghouse-left" stroke="#01B6D1" points="26.0042901 60 1.59872116e-14 60 4.99156272e-13 51.2068966 14.0062294 44.9424471"></polyline>
    <polyline id="mhl-meetinghouse-right" stroke="#01B6D1" points="54.0130711 44.9510795 68 51.2068966 68 60 50.0094648 60"></polyline>
    <polyline id="mhl-steeple-base" stroke="#01B6D1" points="27 34 27 27 41 27 41 34"></polyline>
    <polyline id="mhl-steeple-main" stroke="#01B6D1" points="30 27 30 15 34 -7.99360578e-14 38 15 38 22"></polyline>
    <polyline id="mhl-steeple-mid" stroke="#01B6D1" points="27 16.4137931 34 13 41 16.4137931"></polyline>
    <path id="mhl-magnify-main" d="M30.014186,64.8078197 C31.5108458,65.5701642 33.2052262,66 35,66 C41.0751322,66 46,61.0751322 46,55 C46,48.9248678 41.0751322,44 35,44 C28.9248678,44 24,48.9248678 24,55 C24,56.6363066 24.3572831,58.1891652 24.9980931,59.5848198" stroke="#FC4E6D"></path>
    <path id="mhl-magnify-handle" d="M43.5,62.5 L50.9203887,69.9203887" stroke="#FC4E6D" stroke-linecap="square"></path>
    <path id="mhl-magnify-glare" d="M35,48 C31.1340068,48 28,51.1340068 28,55" stroke="#FC4E6D"></path>
  </g>
  <style>
    #mhl-meetinghouse-main {
      stroke-dasharray: 85;
      stroke-dashoffset: 85;
      animation: dash 800ms 0ms linear forwards;
    }
    #mhl-meetinghouse-left {
      stroke-dasharray: 50;
      stroke-dashoffset: 50;
      animation: dash 800ms 300ms linear forwards;
    }
    #mhl-meetinghouse-right {
      stroke-dasharray: 42;
      stroke-dashoffset: -42;
      animation: dash 800ms 300ms linear forwards;
    }
    #mhl-steeple-base {
      stroke-dasharray: 28;
      stroke-dashoffset: 28;
      animation: dash 400ms 400ms linear forwards;
    }
    #mhl-steeple-main {
      stroke-dasharray: 50;
      stroke-dashoffset: 50;
      animation: dash 400ms 600ms linear forwards;
    }
    #mhl-steeple-mid {
      stroke-dasharray: 16;
      stroke-dashoffset: 16;
      animation: dash 200ms 800ms linear forwards;
    }
    #mhl-magnify-main {
      stroke-dasharray: 64;
      stroke-dashoffset: -64;
      animation: dash 300ms 0ms linear forwards;
    }
    #mhl-magnify-handle {
      stroke-dasharray: 20;
      stroke-dashoffset: 20;
      animation: dash 300ms 300ms linear forwards;
    }
    #mhl-magnify-glare {
      stroke-dasharray: 20;
      stroke-dashoffset: -20;
      animation: dash 300ms 300ms linear forwards;
    }
    @keyframes dash {
      to { stroke-dashoffset: 0 }
    }
  </style>
</svg>
