<svg width="70px" height="61px" viewBox="0 0 70 61" version="1.1" xmlns="http://www.w3.org/2000/svg" xmlns:xlink="http://www.w3.org/1999/xlink">
    <g id="Page-1" stroke="none" stroke-width="1" fill="none" fill-rule="evenodd" opacity="0.177232143">
        <path d="M28.6546053,61 L0,61 L0,40.8338816 C0,32.6737531 0.730804095,26.2360433 2.19243421,21.5205592 C3.65406433,16.8050751 6.35633993,12.5745801 10.2993421,8.82894737 C14.2423443,5.08331461 19.2729957,2.14036158 25.3914474,0 L31,11.6381579 C25.2894451,13.5109743 21.1935431,16.1195008 18.7121711,19.4638158 C16.230799,22.8081308 14.9221498,27.2560029 14.7861842,32.8075658 L28.6546053,32.8075658 L28.6546053,61 Z M67.6546053,61 L39,61 L39,40.8338816 C39,32.6068668 39.7308041,26.1524357 41.1924342,21.4703947 C42.6540643,16.7883538 45.3733354,12.5745801 49.3503289,8.82894737 C53.3273225,5.08331461 58.3409785,2.14036158 64.3914474,0 L70,11.6381579 C64.2894451,13.5109743 60.1935431,16.1195008 57.7121711,19.4638158 C55.230799,22.8081308 53.9221498,27.2560029 53.7861842,32.8075658 L67.6546053,32.8075658 L67.6546053,61 Z" id="“" fill="#000000"></path>
    </g>
</svg>
