<svg width="78px" height="62px" viewBox="0 0 78 62" version="1.1" xmlns="http://www.w3.org/2000/svg" xmlns:xlink="http://www.w3.org/1999/xlink">
  <path d="M40,53.3426657 C41.6499555,51.3036669 44.1727339,50 47,50 L76,50 L76,11 L47,11 C43.1340068,11 40,14.1340068 40,18 L40,53.3426657 Z M40,59 L40,61 L40,62 L38,62 L38,59 C38,55.1340068 34.8659932,52 31,52 L7,52 L7,50 L31,50 C33.8272661,50 36.3500445,51.3036669 38,53.3426657 L38,18 C38,14.1340068 34.8659932,11 31,11 L25.0298885,11 L25.0298885,9 L31,9 C34.4829314,9 37.5037731,10.978441 39,13.8727979 C40.4962269,10.978441 43.5170686,9 47,9 L78,9 L78,62 L46.7999,62 L46.7999,60 L76,60 L76,52 L47,52 C43.1340068,52 40,55.1340068 40,59 Z M31.2001,60 L31.2001,62 L5.68434189e-14,62 L5.68434189e-14,9 L13.0381354,9 L13.0381354,11 L2,11 L2,60 L31.2001,60 Z" id="Combined-Shape" fill="#01B6D1"></path>
  <path d="M12,6 L11,6 C10.4477153,6 10,6.44771525 10,7 L10,9 L8,9 L8,7 C8,5.34314575 9.34314575,4 11,4 L12,4 L12,3 C12,1.34095533 13.9939358,-1.59761093e-12 15.9843334,-1.59872116e-12 C17.9787444,-1.59872116e-12 20,1.34049693 20,3 L20,32.2372884 L15.97747,40.236074 L12,32.2348454 L12,6 Z M18,11 L14,11 L14,31.7651546 L15.9878189,35.763926 L18,31.7627116 L18,11 Z M18,9 L18,3 C18,2.65951264 17.0055601,2 15.9843334,2 C14.9695376,2 14,2.65203034 14,3 L14,9 L18,9 Z" id="Combined-Shape" fill="#F68D2E"></path>
</svg>
