<svg width="80px" height="80px" viewBox="0 0 80 80" version="1.1" xmlns="http://www.w3.org/2000/svg" xmlns:xlink="http://www.w3.org/1999/xlink">
  <g id="study-line-icon" fill="none" transform="translate(2, 10)" stroke-width="2">
    <path id="study-book-left-inside" d="M24.0298885,9 L30,9 C34.418278,9 38,12.581722 38,17 L38,60" stroke="#01B6D1"></path>
    <polyline id="study-book-left-ouside" stroke="#01B6D1" points="30.2001 60 5.5067062e-14 60 5.5067062e-14 9 12.0381354 9"></polyline>
    <path id="study-book-left-lip" d="M6,50 L30,50 C34.418278,50 38,53.581722 38,58 L38,60.7907591 L38,61" stroke="#01B6D1"></path>
    <path id="study-book-right" d="M68.2001,60 L38,60 L38,9 L68,9 C72.418278,9 76,12.581722 76,17 L76,60" stroke="#01B6D1" transform="translate(57.000000, 34.500000) scale(-1, 1) translate(-57.000000, -34.500000) "></path>
    <path id="study-book-right-lip" d="M38,50 L68,50 C72.418278,50 76,53.581722 76,58 L76,60" stroke="#01B6D1" transform="translate(57.000000, 55.000000) scale(-1, 1) translate(-57.000000, -55.000000) "></path>
    <path id="study-pen-main" d="M12,2 C12,1 13.4765218,-1.62269156e-12 14.9843334,-1.62359015e-12 C16.4921451,-1.62359015e-12 18,1 18,2 C18,2 18,11.6666667 18,31 L14.9826444,37 L12,31 C12,11.6666667 12,2 12,2 Z" stroke="#F68D2E"></path>
    <path id="study-pen-cap" d="M18,9 L12,9" id="Path-9" stroke="#F68D2E"></path>
    <path id="study-pen-clip" d="M12,4 L10,4 C8.8954305,4 8,4.8954305 8,6 L8,8" id="Path-10" stroke="#F68D2E"></path>
  </g>
  <style>
    #study-book-left-inside {
      stroke-dasharray: 62;
      stroke-dashoffset: -62;
      animation: dash 400ms 0ms linear forwards;
    }
    #study-book-left-ouside {
      stroke-dasharray: 94;
      stroke-dashoffset: -94;
      animation: dash 550ms 450ms linear forwards;
    }
    #study-book-left-lip {
      stroke-dasharray: 40;
      stroke-dashoffset: -40;
      animation: dash 400ms 0ms linear forwards;
    }
    #study-book-right {
      stroke-dasharray: 167;
      stroke-dashoffset: -167;
      animation: dash 1000ms 0ms linear forwards;
    }
    #study-book-right-lip {
      stroke-dasharray: 45;
      stroke-dashoffset: -45;
      animation: dash 400ms 0ms linear forwards;
    }
    #study-pen-main {
      stroke-dasharray: 80;
      stroke-dashoffset: -80;
      animation: dash 600ms 400ms linear forwards;
    }
    #study-pen-cap {
      stroke-dasharray: 6;
      stroke-dashoffset: 6;
      animation: dash 50ms 400ms linear forwards;
    }
    #study-pen-clip {
      stroke-dasharray: 8;
      stroke-dashoffset: 8;
      animation: dash 50ms 450ms linear forwards;
    }
  </style>
</svg>
