<svg width="62px" height="66px" viewBox="0 0 62 66" version="1.1" xmlns="http://www.w3.org/2000/svg" xmlns:xlink="http://www.w3.org/1999/xlink">
  <path d="M43,62 L43,66 L26,66 L26,64 L41,64 L41,62.8999819 C38.7177597,62.4367116 37,60.4189579 37,58 C37,55.2385763 39.2385763,53 42,53 C44.7614237,53 47,55.2385763 47,58 L47,59 L45,59 L45,58 C45,56.3431458 43.6568542,55 42,55 C40.3431458,55 39,56.3431458 39,58 C39,59.6568542 40.3431458,61 42,61 L43,61 L43,62 Z M21,61.0666541 L21,66 L20,66 L1,66 L-2.13162821e-14,66 L-2.13162821e-14,2.84217094e-14 L62,2.84217094e-14 L62,42 L60,42 L60,2 L2,2 L2,64 L19,64 L19,62.8999819 C16.7177597,62.4367116 15,60.4189579 15,58 C15,55.2385763 17.2385763,53 20,53 C22.7614237,53 25,55.2385763 25,58 L25,59 L23,59 L23,58 C23,56.3431458 21.6568542,55 20,55 C18.3431458,55 17,56.3431458 17,58 C17,59.6568542 18.3431458,61 20,61 L21,61 L21,61.0666541 Z M60,46 L62,46 L62,66 L48,66 L48,64 L60,64 L60,46 Z" id="Combined-Shape" fill="#01B6D1"></path>
  <path d="M41,28.7582165 L31,24.1030441 L21,28.7582165 L21,40 L60.0042901,40 L60.0042901,42 L19,42 L19,29.689251 L17.4220296,30.4238234 L16.5779704,28.6106593 L26,24.2245421 L26,18.381966 L30,16.381966 L30,13 L32,13 L32,16.381966 L36,18.381966 L36,24.2245421 L45.4220296,28.6106593 L44.5779704,30.4238234 L43,29.689251 L43,37 L41,37 L41,28.7582165 Z M28,23.2935076 L31,21.8969559 L34,23.2935076 L34,19.618034 L31,18.118034 L28,19.618034 L28,23.2935076 Z" id="Combined-Shape" fill="#F68D2E"></path>
</svg>
