<svg width="62px" height="66px" viewBox="0 0 62 66" version="1.1" xmlns="http://www.w3.org/2000/svg" xmlns:xlink="http://www.w3.org/1999/xlink">
  <g id="ward-directory-line-icon" fill="none" transform="translate(1.000000, 1.000000)" stroke-width="2">
    <polyline id="wd-card-right" stroke="#01B6D1" points="47 64 60 64 60 45"></polyline>
    <path id="wd-card-bottom" stroke="#01B6D1" d="M25,64 L41,64 L41,61 C38.790861,61 37,59.209139 37,57 C37,54.790861 38.790861,53 41,53 C43.209139,53 45,54.790861 45,57 L45,58"></path>
    <path id="wd-card-main" stroke="#01B6D1" d="M60,41 L60,0 L0,0 L0,64 L19,64 L19,61 C16.790861,61 15,59.209139 15,57 C15,54.790861 16.790861,53 19,53 C21.209139,53 23,54.790861 23,57 L23,58"></path>
    <polyline id="wd-chapel-base" stroke="#F68D2E" points="59.0042901 40 19 40 19 27"></polyline>
    <polyline id="wd-chapel-roof" stroke="#F68D2E" points="16 28.5172414 30 22 44 28.5172414"></polyline>
    <polyline id="wd-steeple-base" stroke="#F68D2E" points="26 24 26 18 30 16 34 18 34 24"></polyline>
    <path id="wd-steeple-top" d="M30,16 L30,12" stroke="#F68D2E"></path>
    <path id="wd-chapel-right" d="M41,36 L41,27" stroke="#F68D2E"></path>
  </g>
  <style>
    #wd-card-right {
      stroke-dasharray: 32;
      stroke-dashoffset: -32;
      animation: dash 100ms 0ms linear forwards;
    }
    #wd-card-bottom {
      stroke-dasharray: 39;
      stroke-dashoffset: -39;
      animation: dash 100ms 100ms linear forwards;
    }
    #wd-card-main {
      stroke-dasharray: 207;
      stroke-dashoffset: -207;
      animation: dash 400ms 200ms linear forwards;
    }
    #wd-chapel-base {
      stroke-dasharray: 54;
      stroke-dashoffset: 54;
      animation: dash 200ms 600ms linear forwards;
    }
    #wd-chapel-roof {
      stroke-dasharray: 31;
      stroke-dashoffset: 31;
      animation: dash 100ms 800ms linear forwards;
    }
    #wd-steeple-base {
      stroke-dasharray: 21;
      stroke-dashoffset: 21;
      animation: dash 100ms 900ms linear forwards;
    }
    #wd-steeple-top {
      stroke-dasharray: 4;
      stroke-dashoffset: 4;
      animation: dash 50ms 950ms linear forwards;
    }
    #wd-chapel-right {
      stroke-dasharray: 9;
      stroke-dashoffset: -9;
      animation: dash 100ms 900ms linear forwards;
    }
    @keyframes dash {
      to { stroke-dashoffset: 0 }
    }
  </style>
</svg>
