<svg width="66px" height="62px" viewBox="0 0 66 62" version="1.1" xmlns="http://www.w3.org/2000/svg" xmlns:xlink="http://www.w3.org/1999/xlink">
  <path d="M64,60 L64,21 L66,21 L66,62 L-5.04485342e-13,62 L-5.04485342e-13,17 L2,17 L2,60 L64,60 Z M36,27 L36,25 L39,25 L39,27 L36,27 Z M45,27 L45,25 L48,25 L48,27 L45,27 Z M54,27 L54,25 L57,25 L57,27 L54,27 Z M36,36 L36,34 L39,34 L39,36 L36,36 Z M45,36 L45,34 L48,34 L48,36 L45,36 Z M54,36 L54,34 L57,34 L57,36 L54,36 Z M9,36 L9,34 L12,34 L12,36 L9,36 Z M18,36 L18,34 L21,34 L21,36 L18,36 Z M27,36 L27,34 L30,34 L30,36 L27,36 Z M36,45 L36,43 L39,43 L39,45 L36,45 Z M45,45 L45,43 L48,43 L48,45 L45,45 Z M54,45 L54,43 L57,43 L57,45 L54,45 Z M9,45 L9,43 L12,43 L12,45 L9,45 Z M18,45 L18,43 L21,43 L21,45 L18,45 Z M27,45 L27,43 L30,43 L30,45 L27,45 Z M9,53 L9,51 L12,51 L12,53 L9,53 Z M18,53 L18,51 L21,51 L21,53 L18,53 Z" id="Combined-Shape" fill="#01B6D1"></path>
  <path d="M46.1260175,5 L50,5 L50,7 L21.9170416,7 C21.4409635,9.83771334 18.9729963,12 16,12 L15,12 L15,10 L16,10 C18.209139,10 20,8.209139 20,6 C20,3.790861 18.209139,2 16,2 C14.1361606,2 12.5700603,3.27477279 12.1260175,5 L16,5 L16,7 L2,7 L2,11.068914 L-1.687539e-13,11.068914 L-1.687539e-13,5 L10.0829584,5 C10.5590365,2.16228666 13.0270037,0 16,0 C18.9729963,0 21.4409635,2.16228666 21.9170416,5 L44.0829584,5 C44.5590365,2.16228666 47.0270037,0 50,0 C52.9729963,0 55.4409635,2.16228666 55.9170416,5 L66,5 L66,17 L-1.56319402e-13,17 L-1.56319402e-13,15 L64,15 L64,7 L55.9170416,7 C55.4409635,9.83771334 52.9729963,12 50,12 L49,12 L49,10 L50,10 C52.209139,10 54,8.209139 54,6 C54,3.790861 52.209139,2 50,2 C48.1361606,2 46.5700603,3.27477279 46.1260175,5 Z" id="Combined-Shape" fill="#FC4E6D"></path>
</svg>
