<svg width="80px" height="80px" viewBox="0 0 80 80" version="1.1" xmlns="http://www.w3.org/2000/svg" xmlns:xlink="http://www.w3.org/1999/xlink">
  <g id="calendar-line-icon" fill="none" transform="translate(8, 10)" stroke-width="2">
    <polyline id="calendar-body" stroke="#01B6D1" points="-2.70117262e-13 16 1.84741111e-13 60 64 60 64 20"></polyline>
    <polyline id="calendar-head-bottom" stroke="#FC4E6D" stroke-linecap="square" points="-1.56541446e-13 15 64 15 64 5 54 5"></polyline>
    <polyline id="calendar-head-left" stroke="#FC4E6D" stroke-linecap="square" points="14 5 -1.71612724e-13 5 -1.71612724e-13 9.06891395"></polyline>
    <path id="calendar-head-middle" d="M48,5 L20,5" stroke="#FC4E6D" stroke-linecap="square"></path>
    <path id="calendar-ring-left" d="M15,10 C17.7614237,10 20,7.76142375 20,5 C20,2.23857625 17.7614237,0 15,0 C12.2385763,0 10,2.23857625 10,5" stroke="#FC4E6D" stroke-linecap="square"></path>
    <path id="calendar-ring-right" d="M49,10 C51.7614237,10 54,7.76142375 54,5 C54,2.23857625 51.7614237,0 49,0 C46.2385763,0 44,2.23857625 44,5" stroke="#FC4E6D" stroke-linecap="square"></path>
    <path id="calendar-date-1" d="M35,25 L38,25" stroke="#01B6D1"></path>
    <path id="calendar-date-2" d="M44,25 L47,25" stroke="#01B6D1"></path>
    <path id="calendar-date-3" d="M53,25 L56,25" stroke="#01B6D1"></path>
    <path id="calendar-date-4" d="M8,34 L11,34" stroke="#01B6D1"></path>
    <path id="calendar-date-5" d="M17,34 L20,34" stroke="#01B6D1"></path>
    <path id="calendar-date-6" d="M26,34 L29,34" stroke="#01B6D1"></path>
    <path id="calendar-date-7" d="M35,34 L38,34" stroke="#01B6D1"></path>
    <path id="calendar-date-8" d="M44,34 L47,34" stroke="#01B6D1"></path>
    <path id="calendar-date-9" d="M53,34 L56,34" stroke="#01B6D1"></path>
    <path id="calendar-date-10" d="M8,43 L11,43" stroke="#01B6D1"></path>
    <path id="calendar-date-11" d="M17,43 L20,43" stroke="#01B6D1"></path>
    <path id="calendar-date-12" d="M26,43 L29,43" stroke="#01B6D1"></path>
    <path id="calendar-date-13" d="M35,43 L38,43" stroke="#01B6D1"></path>
    <path id="calendar-date-14" d="M44,43 L47,43" stroke="#01B6D1"></path>
    <path id="calendar-date-15" d="M53,43 L56,43" stroke="#01B6D1"></path>
    <path id="calendar-date-16" d="M8,51 L11,51" stroke="#01B6D1"></path>
    <path id="calendar-date-17" d="M17,51 L20,51" stroke="#01B6D1"></path>
  </g>
  <style>
    #calendar-body {
      stroke-dasharray: 200;
      stroke-dashoffset: 200;
      animation: dash 1000ms 0ms linear forwards;
    }
    #calendar-head-bottom {
      stroke-dasharray: 100;
      stroke-dashoffset: 100;
      animation: dash 600ms 0ms linear forwards;
    }
    #calendar-head-middle {
      stroke-dasharray: 28;
      stroke-dashoffset: 28;
      animation: dash 200ms 600ms linear forwards;
    }
    #calendar-head-left {
      stroke-dasharray: 20;
      stroke-dashoffset: 20;
      animation: dash 200ms 800ms linear forwards;
    }
    #calendar-ring-left {
      stroke-dasharray: 24;
      stroke-dashoffset: 24;
      animation: dash 300ms 700ms linear forwards;
    }
    #calendar-ring-right {
      stroke-dasharray: 24;
      stroke-dashoffset: 24;
      animation: dash 300ms 700ms linear forwards;
    }
    #calendar-date-1 {
      stroke-dasharray: 3;
      stroke-dashoffset: 3;
      animation: dash 50ms 150ms linear forwards;
    }
    #calendar-date-2 {
      stroke-dasharray: 3;
      stroke-dashoffset: 3;
      animation: dash 50ms 200ms linear forwards;
    }
    #calendar-date-3 {
      stroke-dasharray: 3;
      stroke-dashoffset: 3;
      animation: dash 50ms 250ms linear forwards;
    }
    #calendar-date-4 {
      stroke-dasharray: 3;
      stroke-dashoffset: 3;
      animation: dash 50ms 300ms linear forwards;
    }
    #calendar-date-5 {
      stroke-dasharray: 3;
      stroke-dashoffset: 3;
      animation: dash 50ms 350ms linear forwards;
    }
    #calendar-date-6 {
      stroke-dasharray: 3;
      stroke-dashoffset: 3;
      animation: dash 50ms 400ms linear forwards;
    }
    #calendar-date-7 {
      stroke-dasharray: 3;
      stroke-dashoffset: 3;
      animation: dash 50ms 450ms linear forwards;
    }
    #calendar-date-8 {
      stroke-dasharray: 3;
      stroke-dashoffset: 3;
      animation: dash 50ms 500ms linear forwards;
    }
    #calendar-date-9 {
      stroke-dasharray: 3;
      stroke-dashoffset: 3;
      animation: dash 50ms 550ms linear forwards;
    }
    #calendar-date-10 {
      stroke-dasharray: 3;
      stroke-dashoffset: 3;
      animation: dash 50ms 600ms linear forwards;
    }
    #calendar-date-11 {
      stroke-dasharray: 3;
      stroke-dashoffset: 3;
      animation: dash 50ms 650ms linear forwards;
    }
    #calendar-date-12 {
      stroke-dasharray: 3;
      stroke-dashoffset: 3;
      animation: dash 50ms 700ms linear forwards;
    }
    #calendar-date-13 {
      stroke-dasharray: 3;
      stroke-dashoffset: 3;
      animation: dash 50ms 750ms linear forwards;
    }
    #calendar-date-14 {
      stroke-dasharray: 3;
      stroke-dashoffset: 3;
      animation: dash 50ms 800ms linear forwards;
    }
    #calendar-date-15 {
      stroke-dasharray: 3;
      stroke-dashoffset: 3;
      animation: dash 50ms 850ms linear forwards;
    }
    #calendar-date-16 {
      stroke-dasharray: 3;
      stroke-dashoffset: 3;
      animation: dash 50ms 900ms linear forwards;
    }
    #calendar-date-17 {
      stroke-dasharray: 3;
      stroke-dashoffset: 3;
      animation: dash 50ms 950ms linear forwards;
    }
    @keyframes dash {
      to { stroke-dashoffset: 0 }
    }
  </style>
</svg>
